<svg width="36" height="36" viewBox="0 0 36 36" fill="none" xmlns="http://www.w3.org/2000/svg">
<path d="M33 33L30 30M17.25 31.5C19.1213 31.5 20.9743 31.1314 22.7032 30.4153C24.4321 29.6992 26.003 28.6495 27.3263 27.3263C28.6495 26.003 29.6992 24.4321 30.4153 22.7032C31.1314 20.9743 31.5 19.1213 31.5 17.25C31.5 15.3787 31.1314 13.5257 30.4153 11.7968C29.6992 10.0679 28.6495 8.49696 27.3263 7.17373C26.003 5.85049 24.4321 4.80085 22.7032 4.08472C20.9743 3.36859 19.1213 3 17.25 3C13.4707 3 9.84612 4.50133 7.17373 7.17373C4.50133 9.84612 3 13.4707 3 17.25C3 21.0293 4.50133 24.6539 7.17373 27.3263C9.84612 29.9987 13.4707 31.5 17.25 31.5Z" stroke="white" stroke-width="5" stroke-linecap="round" stroke-linejoin="round"/>
</svg>
